<?xml version="1.0" encoding="UTF-8" standalone="no"?>
<!-- Created with Inkscape (http://www.inkscape.org/) -->

<svg
   version="1.1"
   id="svg1"
   width="1024"
   height="1024"
   viewBox="0 0 1024 1024"
   xmlns="http://www.w3.org/2000/svg"
   xmlns:svg="http://www.w3.org/2000/svg">
  <defs
     id="defs1" />
  <g
     id="g1">
    <path
       style="stroke:#060606;fill:none"
       d="m 308,367 c -2.75525,11.44025 -3,32.22009 -3,50 0,6.69116 0,9.06763 0,17 0,6.51489 -0.99167,11.13928 0,17 m 174,-68 c -0.2811,13.61682 -2.46234,18.05859 -1.39276,20.99536 0.95886,2.63275 1.11252,4.66699 10.39276,6.00464 m 60,-25 1,14 1.96063,33 L 550,453 m 269,-67 c -0.14679,3.41907 -1.289,12.57983 -1.83099,18 -0.30976,3.09753 -0.58063,6.4234 -0.88349,9 -0.51361,4.36957 -2.64129,8.51208 2.86261,10.45837 1.58972,0.56214 3.40564,0.0394 3.85266,-0.0425 2.94892,-0.54022 6.27411,-1.42688 11.99921,-2.12964 3.8299,-0.47015 6.50653,-0.75933 10,0.41669 5.31775,1.79016 10.3681,6.75696 13.62036,11.30091 2.86133,3.99774 4.26215,9.14416 2.80713,13.95294 -2.76697,9.14459 -21.60284,11.35186 -29.42749,10.27466 -4.31683,-0.5943 -7.99072,-1.14478 -12.99615,-2.2901 -3.99726,-0.91468 -5.12702,-1.76777 -6.17206,-4.96064 -0.69678,-2.12878 -0.0282,-5.39123 0.41821,-7.98071 1.25537,-7.28217 3.00409,-12.30609 5.75,-17 M 348,393 v 1 m 60,4 c -0.10968,13.25195 -3.03299,13.55145 3.05862,17.30713 C 412.28369,416.06244 418.98334,416.0246 422,416 M 75,400.5332 c 3.346466,-0.72839 15.042786,-0.93432 18.696762,4.74536 2.734787,4.25092 2.8386,10.1457 2.693672,12.72144 -0.105697,1.87848 -0.03932,6.39185 -2.954475,9.30096 -1.466286,1.46326 -2.790779,1.79096 -3.455246,2.08027 -2.315369,1.00811 -5.701225,2.05157 -9.980713,5.68743 -2.617897,2.22419 -4.71035,4.12476 -7,6.00776 -4.65818,3.83087 -10.015862,6.89325 -16,7.39428 -5.157745,0.43183 -9.384777,-1.7431 -10.979939,-7.47455 -0.96532,-3.46844 -0.870464,-5.42718 -0.215278,-8.99615 1.373333,-7.48096 3.307922,-11.33167 8.368828,-17 C 60.230515,408.21606 67.762833,402.1084 75,400.5332 M 968,401 c -4.74438,10.02673 -4.69623,14.43634 -5.12579,18 -0.16083,1.33435 -2.24323,3.45477 0.76855,6.2276 1.1402,1.04974 3.78082,1.00079 4.36188,1.03857 3.77429,0.24549 8.5589,0.006 11.99536,-0.26617 m -83,-24 v 1 m -416,6 c -3.52133,2.33527 -5.40869,2.74396 -9,4 1.58167,2.87512 2.88763,4.28375 3.00385,14 0.11154,9.32605 -0.8458,26.14832 9.03628,30.10651 3.01108,1.20605 4.99423,0.82049 6.95987,0.60333 4.85144,-0.53589 10.37357,-1.81262 15,-2.70984 m 89,-26 c 0.6308,-1.63568 0.5542,-2.31976 2.21448,-6.00464 1.59967,-3.55041 4.50519,-6.98547 7.78937,-9.11651 7.13452,-4.62952 21.45159,-2.40998 23.68902,8.12115 2.56384,12.06769 -18.94183,11.50934 -24.69287,11.81091 -6.57556,0.34479 -7.39221,-2.45117 -9,-3.81091 -1.61591,2.63776 -2.91559,5.21558 -2.91974,9 -0.008,7.46405 5.77881,13.34991 12.91974,16.46765 13.23981,5.78052 21.93207,1.79242 29,-0.46765 m -184,-40 8,-0.83026 6.99847,-0.33948 L 472,413 m -61,3 -7,3 c 1.09131,2.57544 1.89966,4.29016 2.00385,13 0.0776,6.48798 0.47171,15.40503 4.85034,20.77081 C 414.90967,457.7406 420.67361,455.0683 424,455 m -39,-36 h 19 m -54,5 c -0.69113,5.35156 -3.60611,14.32086 -2.89044,21 0.52041,4.85687 3.65863,7.79761 9.89044,8 m 578,-26 c 4.07196,0 12.33868,-0.003 15,0 3.77631,0.005 4.94586,0.41821 12,0 m -867,1 c 0.63459,0.8324 1.596184,1.74182 2.301697,3.16046 C 99.919075,436.4234 101.18109,444.43958 104,452 m 854,-23 c 0,1.59918 4.3e-4,3.73615 0,10 -1.2e-4,2.06952 0.0285,4.39124 -0.0394,6 -0.22259,5.27661 -0.8056,8.39722 0.84418,11.98456 1.73328,3.76886 5.77319,7.08673 12.15045,7.17132 1.57111,0.0209 2.79321,-0.11596 4.04474,-0.15588 m -76,-28 c -1.755,6.24524 -3.41687,12.69977 -2.88733,18 0.94275,9.43665 7.7832,8.92957 12.88733,8 M 195,576 c -0.35306,8.22296 -0.65927,22.05658 -1.71451,31 -0.56042,4.74963 -0.44822,7.62885 0.0324,9.84802 0.10726,0.49512 0.24465,1.78455 2,2.3642 1.87991,0.62079 3.36109,-0.18109 3.68672,-0.27167 1.89112,-0.526 2.96975,-0.88684 6.99538,-2.28467 5.02777,-1.74572 17.77928,-5.89306 24,-4.71997 8.96304,1.69037 17.94597,7.80542 17.04089,18.06409 -0.29002,3.28735 -1.69494,6.29834 -4.17437,8.67438 -3.58336,3.4339 -8.08027,5.86206 -12.86652,8.01239 -5.29993,2.38104 -16.98399,3.76648 -22,2.63342 -3.31615,-0.74902 -8.34444,-1.95129 -11.6713,-4.8302 -3.81175,-3.29852 -4.18981,-5.86426 -4.67977,-7.48999 -1.01572,-3.37018 -0.90363,-9.72552 3.35107,-17 m 264,-44 c -2.22168,11.79187 -3.11484,18.60443 -2.97687,23 0.0764,2.43408 -0.93728,4.38214 3.125,7.39587 1.94766,1.44489 5.27671,1.35236 6.85187,1.17511 2.36063,-0.26568 5.45038,-0.55792 8,-0.57025 5.26144,-0.0253 7.75958,-7.3e-4 10,-7.3e-4 m 364,11 c 1.41339,-9.05609 10.0957,-18.64319 21,-16.74927 5.36945,0.93262 11.95795,4.28504 12.05249,11.74854 0.12921,10.19983 -15.98053,9.47485 -23.05249,9.91046 -8.02026,0.49408 -9.00305,-2.22089 -11,-3.90973 -6.23999,10.8219 -1.24408,20.34003 10,25.58643 10.87061,5.07214 19.26715,1.86981 25,1.41357 M 128,603.55786 c 7.64389,-0.9339 14.50829,2.2652 17.85185,5.08026 0.52722,0.44391 2.44834,2.95221 3.13271,5.36573 0.72081,2.54205 0.98387,3.46514 1.18442,3.99615 0.50268,1.33093 3.65913,2.97156 0.78781,7.58105 -0.87162,1.39924 -6.77046,4.00843 -8.95679,5.65735 -6.13789,4.6294 -16.34444,11.68384 -23,11.99768 -8.28308,0.39057 -10.23357,-5.23327 -10.81173,-12.23608 -0.37364,-4.52563 0.32663,-8.46313 2.73071,-13 1.98693,-3.74963 4.35529,-6.82843 7.37037,-9.67053 2.8104,-2.64917 6.53642,-4.38379 9.71065,-4.77161 M 396,606 c -0.21133,3.62671 -0.15448,7.57532 -0.0254,11 0.0405,1.07373 0.44095,2.51111 -0.1528,4.91052 -0.78562,3.17469 -3.99771,6.01563 -5.14197,8.10413 -1.97452,3.60388 -8.1044,14.38141 -12.68363,16.55249 -5.37704,2.54932 -13.24649,2.58093 -17.60571,-1.8457 -2.12848,-2.16138 -3.21652,-4.93165 -4.37884,-7.72144 -4.0344,-9.68341 -5.88004,-19.2699 -6.0116,-25 m 109,-5 c -6.23383,2.22107 -8.52213,1.80945 -12,1.96063 -6.01804,0.26166 -16.19016,0.0498 -24,1.03937 m 312,36 c 0.82733,-4.4563 -0.0558,-23.8996 1.89349,-29 1.16285,-3.04272 2.7428,-5.52942 7.1073,-8.14197 2.97345,-1.77991 5.85053,-2.16992 8.99921,-1.0108 6.02448,2.21783 10.58789,9.14905 13.86499,12.94293 1.95697,2.2655 3.11249,3.9729 7.1358,4.74457 2.66346,0.5108 5.05933,-0.86542 5.95911,-1.35028 1.83643,-0.98975 3.18024,-2.31507 5.78546,-5.1189 3.6521,-3.93042 8.66345,-5.54492 14.23999,-3.57867 2.46381,0.86871 4.08716,2.03131 5.90973,4.56793 C 812.43341,629.15472 812.29266,636.16418 817,642 M 457,609 c 0.0818,1.90375 0.94376,4.36755 0.99924,13 0.0198,3.08813 0.0996,6.02454 0.51852,8 0.8031,3.78711 3.63217,13.87549 9.52237,15.68134 C 473.08496,647.22797 478.79584,644.66101 482,644 M 295,610.48303 c 4.52274,-0.9873 7.12473,-1.05871 12,0.86572 7.29733,2.88056 14.77609,4.49006 17.31866,14.65125 1.07352,4.29028 1.09238,5.96576 0.68827,9 -0.60538,4.54541 -6.08304,10.03271 -12.00693,11.55713 -6.72705,1.73108 -10.78894,1.83545 -17,-0.52246 -3.85516,-1.4635 -7.02063,-3.0213 -9.72147,-6.12879 -1.77841,-2.04626 -2.72061,-4.30835 -3.3742,-6.90588 -2.33164,-9.26642 2.52286,-20.42725 12.09567,-22.51697 M 398,625 c 2.4516,1.05872 5.27588,1.51672 9.12344,6.18518 C 410.53,635.31848 415.26331,643.28821 419,648 m 356,-21 c 0,2.72522 0,1.79956 0,4 m -622,-3 c 5.39699,4.01019 7.08774,11.20282 13,22"
       id="path1" />
  </g>
</svg>
