<?xml version="1.0" encoding="UTF-8" standalone="no"?>
<!-- Created with Inkscape (http://www.inkscape.org/) -->

<svg
   version="1.1"
   id="svg1"
   width="1024"
   height="1024"
   viewBox="0 0 1024 1024"
   xmlns="http://www.w3.org/2000/svg"
   xmlns:svg="http://www.w3.org/2000/svg">
  <defs
     id="defs1" />
  <g
     id="g1">
    <path
       style="stroke:#050505;fill:none"
       d="m 302,544 c -6.37589,2.45959 -16.98856,6.43488 -23,7.41052 -8.61792,1.39862 -18.73108,5.07324 -28,1.05628 -3.02298,-1.31012 -5.51913,-3.23932 -7.98534,-5.56018 C 225.70636,530.61865 217.80571,500.77319 212.80402,477 c -2.68126,-12.74414 -5.45484,-24.38153 -7.5571,-37 -1.35736,-8.14728 -2.57294,-16.94281 -3.82254,-25 -0.73921,-4.7663 -1.11153,-8.9986 -1.85184,-14 -0.98737,-6.67053 -2.32223,-14.41907 -2.56174,-21 -0.11335,-3.11487 -0.34979,-4.86017 -0.72531,-8 -0.5327,-4.45398 -0.90088,-9.48981 -1.44058,-14 -0.43005,-3.59393 -0.79927,-5.48804 -0.84105,-9 -0.0688,-5.78571 -0.49341,-12.17151 -1.00386,-18 -0.28679,-3.27472 -0.70708,-5.02954 -0.91049,-8 -0.27631,-4.03485 -0.0892,-8.9007 -0.0895,-13 -2e-4,-3.03546 0.12842,-4.86682 -0.16975,-8 C 191.09343,294.25745 191,285.0307 191,277 c 0,-4.16681 0,-6.15472 0,-10 0,-8.3302 0,-20.30872 0,-29 0,-12.72333 -0.0151,-27.54938 1.16975,-40 0.2999,-3.15131 0.64765,-4.96442 0.85494,-8 0.51543,-7.5481 2.29588,-16.60114 3.77547,-24 0.82815,-4.1413 1.20874,-6.62177 2.54399,-11 3.83145,-12.56311 9.82129,-30.21252 24.65585,-32.55322 11.37846,-1.79535 16.23645,6.89282 21.14969,15.55322 6.87536,12.11902 11.47674,24.87933 15.85031,38 2.35596,7.06787 4.298,13.72339 6.66974,21 13.70611,42.05096 25.68066,85.05725 36.09878,128 2.63556,10.86365 5.38843,21.1311 8.10492,32 7.72083,30.89154 12.64994,62.61194 18.92673,94 2.47199,12.36157 4.72775,23.90448 6.47067,36 1.49973,10.40771 3.02652,21.41266 4.81018,32 1.01011,5.99585 3.53251,20.98907 4.34415,26 1.24677,7.69739 1.0896,11.13196 8.57483,10.58795 1.75348,-0.12744 7.8696,-3.669 10,-5.64276 6.62823,-6.14062 12.55643,-14.10657 20,-17.10571 1.72559,-0.69519 4.58749,-1.35742 6,-1.71289 6.73383,-1.69477 7.22491,-2.02649 11,-2.65204 0.69382,-0.11493 2.99292,-0.10809 6,-0.50385 4.37045,-0.57531 6.33252,-1.60534 8,-1.69604 4.00153,-0.21765 8.43729,-0.11804 18,1.01086 6.39413,0.75482 16.14255,1.97132 23,4.15351 5.00449,1.59259 10.92004,4.61407 15,6.41131 3.56747,1.57141 4.3692,2.79358 5.74072,4.14661 0.46512,0.4588 1.02375,1.58508 2.96915,3.06555 1.94156,1.47754 4.78509,1.92609 5.29477,2.05249 2.89459,0.71777 9.56409,2.38098 16.99536,5.27625 9.7168,3.78564 12.14893,2.86401 16,3.60803 1.3775,0.26611 3.68805,1.65478 6.68213,0.35803 2.45215,-1.06207 2.19403,-3.67297 2.25922,-4.37659 0.26013,-2.80664 0.31463,-4.95044 0.88891,-10.98071 0.81836,-8.5932 0.89093,-18.18054 4.41742,-26 2.23547,-4.95673 7.06628,-8.771 11.75232,-9.95605 5.35645,-1.35462 10.22406,-0.97913 16,-0.17432 3.24292,0.45184 8.40558,0.78326 11.86652,2.70215 2.57788,1.42926 3.54889,3.81323 4.22992,6.43207 0.74774,2.87554 1.0426,5.62945 0.73303,8.99615 -0.3985,4.33386 -0.78827,7.48145 -2.70911,12 -2.70843,6.37146 -9.00525,14.17877 -14.12115,18.8302 -6.14307,5.58545 -11.10822,5.44165 -10.58796,13.1698 0.26935,4.00165 2.54096,7.39868 3.58259,8.72144 2.1325,2.70813 5.9107,3.36621 11.00616,3.99231 8.36676,1.02807 14.95789,-0.0369 22,-2.78321 8.34497,-3.25439 15.94232,-10.53393 21.91052,-16.93054 2.94757,-3.15918 6.27124,-7.37592 9.09333,-9.78625 3.85382,-3.29157 8.01086,-4.44275 9.84802,-5.91285 0.63287,-0.50634 2.04291,-1.27313 2.83026,-4.31634 0.72589,-2.8056 0.31714,-6.13068 0.31787,-6.98456 0.002,-2.58514 -0.15497,-4.87347 0.57947,-10 0.99896,-6.97266 2.53174,-13.34717 5.42053,-18 M 845,390 c -4.74652,11.40051 -15.49927,31.26459 -22.21912,44 -18.38836,34.84967 -37.9635,69.85907 -55.53399,105 -5.79138,11.5827 -12.51136,23.18121 -17.93824,35 -1.72564,3.75818 -4.08416,9.86334 -5.83795,12.95679 -3.06927,5.41375 -6.90246,6.20623 -9.4707,8.04321 -1.18719,-1.27258 -2.43988,-2.3385 -3.53088,-4.04474 -0.75977,-1.18823 -1.4632,-2.22089 -2.21448,-4.95526 -1.16126,-4.2265 -2.97913,-18.50067 -4.28632,-22 -1.92956,-5.16553 -3.91089,-6.18439 -5.97296,-7.58875 -0.96765,-0.65899 -1.59448,-1.7055 -4.99536,-1.21911 -2.74561,0.39258 -7.46973,3.57275 -10,5.52624 -3.66766,2.83155 -7.75684,5.70478 -12,7.55707 -4.96313,2.16657 -9.97974,3.12482 -15,3.55097 -5.7923,0.49157 -13.87695,-1.39283 -19,-3.62659 -6.5387,-2.85095 -11.96942,-8.61212 -16.30865,-15.1991 C 637.06476,547.49561 634.26794,545.89026 631,544 m 84,-44 c 3.39893,8.87683 5.71973,19.22552 4.42438,29 -0.58246,4.39532 -0.84473,7.7793 -1.42438,12 -0.86206,6.27667 -1.36743,8.02063 -2,13 M 408,529 c -1.44901,2.71521 -1.99771,5.9126 -2,11 -8.2e-4,1.84161 0,3.61584 0,8 0,6.47113 0.38016,11.27441 1.05093,17 0.79044,6.7467 3.23258,15.19489 6.56403,21 2.43372,4.24078 4.42453,8.20276 7.71374,11.95679 3.1727,3.62097 7.08347,5.90442 11.6713,6.9198 2.54636,0.56353 4.32898,0.94763 7,0.94439 3.19919,-0.004 6.02103,-0.66095 9,-1.51544 6.74298,-1.9342 13.54895,-9.51269 17.30093,-15.30554 3.37708,-5.21399 6.79291,-12.28241 8.48996,-18 0.95328,-3.21173 1.68824,-7.37183 2.03934,-11 1.1601,-11.98767 1.99753,-12.37036 3.16977,-14 m 47,11 c 4.20093,3.56433 13.78363,4.80591 21,8 m -195,-7 c -1.23401,3.22375 -2.69232,9.9989 -5.37808,19.99927 -0.84687,3.1532 -1.04712,4.79016 -3.84955,7.03546 -4.4418,3.55878 -6.73117,3.79425 -9.51004,8.96912 -1.54559,2.87823 -3.02982,6.03692 -4.50925,8.99615 -3.92026,7.84149 -9.38083,20.88611 -12.00772,29 -6.76828,20.90576 -11.19977,43.19531 -11.76001,66 C 305.59995,713.68811 305,731.55444 305,747 c 0,4.02026 0,6.09076 0,10 0,7.93591 0.82181,17.13049 1.01465,25 0.0676,2.75708 0.37832,4.37567 0.70062,7 0.45413,3.69763 0.87903,8.15265 1.41513,12 0.72623,5.21191 1.31241,9.17346 2.11652,14 0.96756,5.8075 2.27133,12.13953 3.3287,18 2.88596,15.99506 7.0618,33.8623 11.42438,49 1.15366,4.00305 2.77911,9.67078 4.01852,13 2.36084,6.34155 4.58786,7.3479 7.98224,9.3866 0.57898,0.34771 2.60309,1.93902 4.99924,1.92743 3.17004,-0.0153 4.19034,-1.5318 4.99615,-2.09723 2.54581,-1.78626 4.52314,-3.07849 6.30091,-7.21759 2.18939,-5.09748 3.86828,-22.17731 5.27469,-31.99921 0.44848,-3.13214 0.28756,-6.73975 0.59802,-10 0.93011,-9.76733 2.77954,-18.77802 2.82947,-29 0.0132,-2.71289 -0.0784,-5.38409 0.17053,-8 0.297,-3.12079 0.73816,-4.84009 0.81558,-8 0.21478,-8.76508 0.0147,-19.10645 0.0147,-28 0,-3.9093 0,-5.97974 0,-10 0,-10.23389 0.81592,-22.6424 -0.16977,-33 -2.41681,-25.39612 -2.71158,-51.49121 -3.8696,-77 -0.74069,-16.31598 -2.55621,-32.73279 -4.1304,-49 -0.39065,-4.03687 -1.45294,-14.88306 -1.97452,-18 -1.26306,-7.54822 -4.91409,-8.03516 -6.85571,-10 m 388,10 c -0.13251,3.08691 -0.99829,10.63977 -1,15 -0.002,5.37323 -0.64313,11.88904 -0.82947,14 -0.0593,0.67187 -0.38458,2.81592 0.14813,5 0.60773,2.49158 1.49115,3.36542 1.94446,4 1.3692,1.91675 3.35352,2.79742 4.63733,9 0.65845,3.18103 1.31281,8.41968 1.82874,12 1.30853,9.08081 2.3023,17.92627 3.32098,27 2.27625,20.27563 2.94983,44.83081 2.94983,65 0,4.01331 0.13135,6.10071 -0.0394,10 -0.29529,6.74365 -1.26251,14.29602 -1.8858,21 -1.33063,14.31165 -3.93677,28.69678 -7.44904,43 -1.85125,7.53894 -3.33532,17.11426 -5.47998,21.98456 -2.87072,6.51935 -7.97302,7.06775 -10.94751,9.33954 -1.45752,1.11316 -2.97625,2.18554 -3.1983,8.6759 m 0,-7 c -3.99432,-3.08368 -8.49554,-2.20746 -10.05017,-16 -1.63641,-14.5177 -4.87103,-34.82153 -4.94904,-51 -0.0173,-3.58496 -7.9e-4,-5.52362 -7.9e-4,-9 0,-10.15411 0.72974,-22.56482 0.98535,-33 0.10199,-4.16431 -0.1142,-6.15869 0.054,-10 0.70807,-16.17114 3.59393,-32.50055 5.95984,-49 1.58184,-11.03149 4.45886,-21.2688 8,-32 1.11847,-3.38947 2.53619,-8.98779 3.71454,-11.99615 C 724.4165,634.10376 728.22693,633.32336 731,632 M 342,908 v 2"
       id="path2" />
  </g>
</svg>
