<?xml version="1.0" encoding="UTF-8" standalone="no"?>
<!-- Created with Inkscape (http://www.inkscape.org/) -->

<svg
   version="1.1"
   id="svg1"
   width="1024"
   height="1024"
   viewBox="0 0 1024 1024"
   xmlns="http://www.w3.org/2000/svg"
   xmlns:svg="http://www.w3.org/2000/svg">
  <defs
     id="defs1" />
  <g
     id="g1">
    <path
       id="path1"
       style="fill:#000000;fill-opacity:0;fill-rule:evenodd"
       d="M 335.5,938.42741 C 328.01958,934.53691 324.57776,928.2609 317.71654,906 c -6.63808,-21.53698 -9.10743,-30.91037 -13.69898,-52 -4.98733,-22.90746 -7.99254,-51.60332 -9.1112,-87 -2.36618,-74.87074 4.27518,-122.11047 23.01398,-163.69763 5.61067,-12.4518 11.59329,-23.48759 19.6799,-36.30237 3.2533,-5.15547 3.43251,-5.87585 2.86091,-11.5 -0.63311,-6.22944 -6.90962,-43.82629 -10.51737,-63 -1.93517,-10.28462 -5.20788,-27.82513 -6.25043,-33.5 -0.25261,-1.375 -1.87684,-9.475 -3.6094,-18 -9.1621,-45.08173 -18.21541,-83.86117 -29.06532,-124.5 -1.17473,-4.4 -2.96353,-11.15 -3.9751,-15 -13.98164,-53.21326 -32.60532,-114.82045 -42.32161,-140 -7.19569,-18.64747 -14.73525,-31.5 -18.47856,-31.5 -2.44145,0 -10.50399,8.8981 -13.15699,14.52051 -10.27231,21.76971 -14.278,49.99776 -14.25851,100.47949 0.0155,40.18624 1.61693,62.63097 8.24089,115.5 12.23652,97.66571 28.34339,159.82592 45.84124,176.9121 3.14407,3.07011 4.65667,3.70258 11.34006,4.74162 9.26089,1.43976 16.73586,0.34292 28.47861,-4.17881 4.24914,-1.6362 8.83636,-2.97491 10.19381,-2.97491 3.37127,0 8.07753,4.69152 8.07753,8.05223 0,4.76649 -3.38724,7.55653 -14.40268,11.86336 -21.87121,8.55121 -29.34429,10.57129 -39.09732,10.56853 -7.96253,-0.002 -9.62871,-0.33234 -14.45399,-2.86354 C 219.84207,550.44845 200.99768,503.30673 191.03173,432.5 185.80842,395.38907 184.76974,375.47385 184.27765,303 183.66278,212.44501 185.21721,178.08549 191.03745,153.57918 197.58146,126.02539 210.45073,111 227.50659,111 c 19.27132,0 29.49254,16.38141 51.78804,83 16.97221,50.71267 32.1511,108.95714 45.21522,173.5 1.44723,7.15 3.24972,15.925 4.00553,19.5 6.42584,30.39432 16.16978,89.08731 22.49511,135.5 1.12434,8.25 2.27891,16.47092 2.56571,18.2687 l 0.52144,3.26871 2.62849,-3.26871 c 11.02163,-13.70614 29.34723,-27.70791 42.19876,-32.2422 6.81805,-2.40555 16.63901,-2.22504 20.14947,0.37035 2.15716,1.59487 5.39928,2.37874 13.1121,3.17022 5.63549,0.57832 13.32852,1.69983 17.09562,2.49227 7.25846,1.52686 20.02497,6.96382 24.36166,10.37507 1.65395,1.30099 3.41299,1.83847 4.84257,1.47967 3.88779,-0.97577 10.64436,1.50254 22.21992,8.15028 6.16342,3.5396 11.67592,6.43564 12.25,6.43564 0.63397,0 1.04957,-3.04276 1.05855,-7.75 0.0388,-20.33098 8.20959,-35.35546 22.86018,-42.03527 4.81635,-2.19597 7.06271,-2.5694 15.62504,-2.59741 16.3952,-0.0537 30.34665,5.56558 36.2059,14.58269 2.64782,4.07487 2.7894,4.87587 2.70438,15.29999 -0.0695,8.52369 -0.56252,12.29041 -2.18999,16.73213 -3.10855,8.48395 -10.14243,18.70118 -17.07638,24.80469 -7.04934,6.20509 -6.57325,7.61607 2.16941,6.42948 7.31129,-0.99232 11.6649,-3.50144 20.28806,-11.69259 15.60294,-14.82127 22.82278,-26.22469 23.79714,-37.58651 0.97476,-11.36667 4.80521,-18.26858 12.10148,-21.80513 1.65,-0.79977 4.21562,-2.12698 5.70137,-2.94935 3.42108,-1.8936 7.20655,-1.00089 9.81445,2.31452 2.56337,3.2588 2.82205,13.3125 0.39436,15.3273 -1.29883,1.07794 -1.51608,2.97638 -1.18694,10.37245 0.65042,14.61569 6.83902,27.18554 16.26657,33.03948 4.29836,2.66903 5.67062,2.98792 12.90989,3 7.19855,0.012 8.65691,-0.31622 13.1003,-2.94862 6.28087,-3.72098 14.55398,-12.05236 17.02784,-17.14778 2.85289,-5.87609 3.0769,-16.23963 0.56323,-26.05668 C 700.71704,493.25076 703.9423,484 714.27217,484 c 7.67185,0 11.6666,3.58636 15.12716,13.58067 4.94069,14.26903 5.47315,32.21284 1.43955,48.51268 -0.94721,3.8277 -0.78135,6.578 0.99506,16.5 1.17246,6.54866 2.60648,13.57918 3.18672,15.62338 l 1.05498,3.71673 8.57941,-16.71673 C 755.55131,543.98571 757.47612,540.42727 797.78174,467 c 4.67953,-8.525 11.20362,-20.45 14.49798,-26.5 25.52332,-46.87293 31.31252,-57.12995 32.74432,-58.01486 0.54662,-0.33783 1.88878,-0.3302 2.98258,0.017 4.0571,1.28768 3.45413,4.72336 -3.62869,20.67599 C 836.41114,421.12167 806.69285,480.816 791.44652,509.5 765.41687,558.47143 743,605.77208 743,611.72446 c 0,1.65982 1.30776,9.71333 2.90613,17.8967 5.38042,27.54672 7.78662,47.58078 9.60665,79.98508 2.78664,49.61393 1.32212,73.30192 -7.19608,116.39376 -6.81402,34.47075 -11.28725,47.12691 -19.17551,54.25348 -6.59481,5.95801 -15.23556,6.23659 -21.54745,0.69468 -5.58032,-4.89958 -9.16472,-16.07018 -12.52258,-39.02594 -4.76443,-32.57159 -6.04029,-66.1666 -3.66191,-96.42222 3.77543,-48.02766 11.5763,-82.42301 28.46342,-125.5 2.26392,-5.775 4.11872,-11.70754 4.12178,-13.18343 0.003,-1.47588 -1.09507,-8.67588 -2.44028,-16 -1.3452,-7.32411 -2.75442,-15.68845 -3.13159,-18.5874 l -0.68577,-5.27084 -4.1184,3.52466 c -6.12839,5.24488 -16.31112,11.11333 -23.33686,13.44938 -11.86412,3.9448 -27.92349,2.52475 -39.979,-3.53514 -6.92662,-3.48178 -15.57541,-11.36388 -20.65396,-18.82305 l -1.85141,-2.71928 -9.01409,9.60444 c -9.94573,10.5971 -18.48322,17.18497 -27.4124,21.15252 -4.60527,2.04628 -8.02618,2.71931 -15.87069,3.12241 -18.52579,0.95197 -29.86784,-2.52869 -42.5,-13.04243 -5.67343,-4.722 -7.23656,-5.50128 -12.29217,-6.12812 -4.19931,-0.52067 -9.26931,-2.47908 -18.43619,-7.12143 -6.9542,-3.52179 -12.71683,-6.29954 -12.80582,-6.17277 -0.089,0.12676 -1.12851,4.44539 -2.31003,9.59696 -1.19479,5.20944 -3.89986,12.86615 -6.09496,17.25182 -10.28548,20.54977 -23.8142,31.11954 -40.06083,31.2989 -12.52555,0.13828 -21.45558,-4.32951 -30.54773,-15.28337 -10.76942,-12.97457 -16.20296,-28.28869 -17.29227,-48.7373 l -0.66,-12.38955 -7.57814,5.91369 c -7.28167,5.68233 -18.79847,17.96478 -24.33184,25.94944 l -2.63934,3.80856 1.53388,13.41067 c 3.09846,27.08978 3.57594,31.98235 5.99324,61.41066 3.606,43.89967 4.53685,66.10571 5.17699,123.5 0.51047,45.76776 0.33649,55.17308 -1.56313,84.5 -3.31972,51.2511 -5.5804,64.03789 -12.81635,72.49147 -5.79134,6.76587 -14.05886,8.9291 -20.77531,5.43594 z M 347.56499,864.5 c 10.67891,-58.02168 11.09868,-131.37815 1.36764,-239 -2.97051,-32.85271 -2.25687,-31.88405 -10.68259,-14.5 -11.89716,24.5464 -17.23395,42.54023 -20.90958,70.5 -2.70841,20.60234 -2.46018,65.77386 0.50831,92.5 3.11524,28.04739 6.10843,45.18274 12.75158,73 3.3196,13.90033 4.8456,19.30211 9.68588,34.28624 l 2.19214,6.78625 1.25496,-4.78625 C 344.42355,880.65381 346.1478,872.2 347.56499,864.5 Z M 723,831.5694 c 0,-0.23683 1.33037,-5.74933 2.95639,-12.25 9.97745,-39.88907 13.38146,-75.59443 11.13708,-116.8194 -1.51079,-27.75038 -5.58461,-60.16067 -7.19925,-57.27546 -1.6775,2.99753 -8.0966,28.86217 -10.39053,41.86681 -3.65077,20.69681 -5.10805,54.33209 -3.6797,84.93052 C 716.99506,797.10882 720.68689,832 722.17026,832 722.62662,832 723,831.80623 723,831.5694 Z M 447.33716,591.66694 c 8.34367,-5.05081 17.27913,-20.56828 18.31828,-31.81183 0.33778,-3.65469 0.33152,-7.77095 -0.0139,-9.14725 -1.2463,-4.96565 -13.76844,-10.21137 -26.89798,-11.26798 -7.64458,-0.6152 -8.5995,-0.47364 -13.14249,1.94836 -2.69442,1.43647 -5.50692,2.61176 -6.25,2.61176 -3.26932,0 0.0103,22.82398 4.73822,32.9744 3.71044,7.96604 7.17301,12.60478 11.27655,15.107 4.13185,2.51948 7.30617,2.40958 11.97133,-0.41446 z M 548.9039,546.5497 c 4.02401,-2.0809 13.09726,-12.32132 15.2821,-17.24796 1.024,-2.30905 1.96356,-5.88092 2.08791,-7.93749 0.21522,-3.55938 0.0439,-3.78351 -3.56067,-4.65977 -4.75619,-1.15621 -11.98707,-0.12201 -14.68505,2.10033 C 545.67939,520.73953 543,532.79125 543,541.4213 c 0,7.06455 0.80596,7.76464 5.9039,5.1284 z" />
  </g>
</svg>
