<?xml version="1.0" encoding="UTF-8" standalone="no"?>
<!-- Created with Inkscape (http://www.inkscape.org/) -->

<svg
   version="1.1"
   id="svg1"
   width="1024"
   height="1024"
   viewBox="0 0 1024 1024"
   xmlns="http://www.w3.org/2000/svg"
   xmlns:svg="http://www.w3.org/2000/svg">
  <defs
     id="defs1" />
  <g
     id="g1">
    <path
       style="stroke:#050505;fill:none"
       d="m 302,544 c -6.18707,2.37158 -17.22406,6.45367 -23,7.40741 -8.57428,1.41583 -18.78366,5.10876 -28,1.11572 -3.15277,-1.36596 -5.45282,-3.18255 -7.99538,-5.58331 C 225.91853,530.80664 217.43846,499.92438 212.60185,476 c -2.49692,-12.35107 -5.32387,-23.77655 -7.36111,-36 -1.36203,-8.17218 -2.82062,-18.07111 -3.9861,-26 -0.66147,-4.50006 -0.92122,-8.15735 -1.66667,-13 -1.02208,-6.63965 -2.42023,-14.39392 -2.58335,-21 -0.0806,-3.26355 -0.32354,-4.69678 -0.74536,-8 -0.60438,-4.73285 -0.89239,-10.33643 -1.51852,-15 -0.42684,-3.1792 -0.71756,-4.66113 -0.74074,-8 -0.0422,-6.0755 -0.56375,-13.07086 -1.05556,-19 -0.26306,-3.17139 -0.80189,-4.6861 -0.92592,-8 C 191.87575,318.18481 192,313.76044 192,310 c 0,-3.14996 0.18629,-4.72882 -0.13426,-8 C 191.05922,293.76978 191,284.40509 191,276 c 0,-3.75342 0,-5.37872 0,-9 0,-7.89996 0,-18.81238 0,-27 0,-12.9115 -0.31154,-30.66199 1.25926,-43 0.35091,-2.75623 0.6019,-4.23181 0.75463,-7 0.40087,-7.26617 2.29554,-16.53668 3.78704,-24 0.8487,-4.24677 1.11896,-6.45654 2.53704,-11 3.95262,-12.66406 9.7397,-30.14807 24.66203,-32.58331 11.05975,-1.80487 15.74423,6.15716 20.58797,14.58331 7.15667,12.44971 11.90928,25.49176 16.41203,39 2.35028,7.05084 4.27542,13.71674 6.66666,21 13.75705,41.90149 25.94659,85.07092 36.11575,128 2.49228,10.52112 5.24261,20.58148 7.84723,31 2.59003,10.36005 4.48331,21.5451 6.78241,32 4.63373,21.07123 8.09155,41.49658 12.38888,63 2.48725,12.44592 4.69025,23.87567 6.45371,36 1.4949,10.27802 3.07187,21.41681 4.81943,32 0.94638,5.73132 3.59091,21.36731 4.33798,26 1.16952,7.2522 2.81494,8.18103 4.61108,9.64355 0.59134,0.48145 1.26502,1.35395 3.97687,1.07868 1.61612,-0.164 7.0799,-3.09198 9,-4.80097 6.94226,-6.17895 13.47678,-15.18408 21,-18.13885 1.64609,-0.64655 4.66507,-1.31854 6,-1.65277 6.90222,-1.72827 7.34918,-2.06482 11,-2.69446 0.65814,-0.11352 3.05722,-0.0371 6,-0.39813 3.85556,-0.47302 5.53592,-1.547 7,-1.74079 4.25412,-0.56292 8.73831,-0.34338 19,0.96302 5.41904,0.68994 15.02914,1.91333 21,3.6018 4.21512,1.19202 7.17603,2.98743 11,4.79169 2.50418,1.18158 5.65576,1.88391 7,2.56018 3.4487,1.73505 4.1171,3.06543 5.60648,4.70831 0.25979,0.28663 0.73925,1.21753 2.06482,2.25 1.8294,1.42493 4.85824,1.83912 5.3287,1.95374 2.59506,0.63232 9.72784,2.47632 17,5.3241 9.05359,3.54528 11.43042,2.63983 15,3.3518 1.55176,0.30957 4.27185,2.14691 7.78241,0.70374 2.57159,-1.05713 2.14856,-3.82056 2.19446,-4.50928 0.18097,-2.71698 0.28711,-4.85461 0.88885,-10.99536 0.86341,-8.8103 0.90473,-18.16547 4.35187,-26 2.21137,-5.02594 7.03046,-8.82837 11.78241,-9.98151 5.49432,-1.33331 10.20007,-0.91961 16,-0.13421 3.0929,0.41882 8.35803,0.7149 11.92133,2.61108 2.6961,1.43469 3.50213,3.76282 4.19903,6.50464 0.70624,2.77844 1.05371,5.80292 0.74536,9 -0.36761,3.81116 -0.70819,6.90417 -2.29626,11 -2.78284,7.17712 -8.80634,14.65735 -14.56946,19.86572 -6.14642,5.55481 -11.4903,5.41779 -10.72223,13.13428 0.41321,4.15143 2.60413,7.43219 3.64813,8.8009 2.04993,2.68763 6.01947,3.28656 11.0741,3.93982 8.1239,1.04993 14.43329,-0.0905 21,-2.42126 8.24371,-2.92603 16.03943,-10.15827 21.98151,-16.31946 2.33233,-2.41833 6.87878,-7.93823 9.02313,-9.93518 4.93701,-4.59766 10.0343,-5.90375 11.77777,-7.40277 0.39893,-0.34296 1.40057,-1.08612 2,-3.66669 C 631.40851,537.30005 631,533.8913 631,533 c 0,-2.52643 -0.20178,-4.80444 0.58795,-10 1.1062,-7.27747 2.46149,-13.45074 5.41205,-18 M 845,390 c -4.30151,10.60278 -15.80096,31.76202 -22.22687,44 -18.38586,35.01538 -37.91546,69.76605 -55.53241,105 -5.7976,11.59521 -12.539,23.22577 -17.95367,35 -1.80438,3.92358 -4.48035,11.10828 -6.28705,13.93518 -2.86499,4.48273 -6.41669,5.17383 -9,7.06482 -1.21094,-1.26685 -2.50366,-2.32617 -3.60187,-4.01855 -0.75287,-1.16028 -1.44232,-2.13062 -2.1759,-4.98145 -1.05658,-4.10583 -2.95819,-18.57471 -4.1806,-22 -1.94715,-5.45618 -4.0542,-6.3175 -6.04163,-7.72223 -0.91901,-0.64954 -1.4079,-1.79266 -5,-1.17596 -2.84534,0.48852 -7.76813,4.08233 -12,7.17132 -3.4173,2.49445 -6.72461,4.79767 -11,6.45374 -4.64648,1.7998 -9.51422,2.7287 -14,3.13885 -5.58716,0.51087 -13.86322,-1.39538 -19,-3.59717 C 650.47943,565.47363 645.74829,561.0827 641.28705,554 637.32501,547.70984 634.26489,545.81409 631,544 m 84,-44 c 3.55695,8.97754 5.53497,20.12927 4.25928,30 -0.51166,3.95911 -0.74921,7.08826 -1.25928,11 -0.86285,6.61688 -1.36499,7.65125 -2,13 M 408,529 c -1.53555,2.65662 -2,5.91205 -2,11 0,1.80835 0,3.51794 0,8 0,6.69128 0.39178,10.5 0.95834,16 0.74848,7.26575 3.58399,16.83325 7.24073,23 2.27942,3.84399 4.0278,7.46301 7.0787,10.98145 3.15717,3.64099 7.09296,5.96331 11.72223,6.92596 2.63214,0.54736 4.271,0.97327 7,0.97223 3.18823,-0.001 6.01465,-0.72162 9,-1.54169 6.63501,-1.82257 13.61172,-9.60718 17.31946,-15.33795 3.3436,-5.16797 6.79776,-12.30774 8.49536,-18 0.93808,-3.14551 1.70184,-7.4519 2.0509,-11 1.19647,-12.16162 1.91333,-12.40735 3.13428,-14 m 47,11 c 4.03479,3.57495 14.06018,4.83142 21,8 m -195,-7 c -1.22018,3.07971 -2.77292,9.98566 -5.37036,20 -0.87818,3.38574 -0.83576,4.82056 -3.78705,7.08795 -4.57516,3.51496 -6.75088,3.47504 -9.59723,8.91205 -1.53799,2.93787 -2.98172,5.99121 -4.48611,9 -3.89423,7.78845 -9.43756,20.92102 -12.03702,29 -7.63712,23.7356 -10.07465,48.35248 -12.58795,74 C 303.82318,719.37939 305,733.76904 305,747 c 0,4.20544 0,5.9259 0,10 0,8.02344 0.86719,17.25586 1.00464,25 0.0508,2.86395 0.38098,4.25238 0.73608,7 0.47425,3.66949 0.85819,8.18329 1.37503,12 0.71732,5.297 1.31891,9.16339 2.125,14 0.97003,5.82025 2.29288,12.16058 3.3472,18 2.203,12.20123 4.7031,23.7583 7.78241,36 1.78897,7.11194 5.56781,20.23651 7.63428,26 2.34961,6.55316 4.6857,7.38959 7.99536,9.40277 0.54803,0.33338 2.61575,2.10181 5,2.09723 2.35736,-0.005 3.3895,-1.13477 4,-1.54626 2.80545,-1.89106 4.96445,-3.16492 6.93982,-6.95374 1.37738,-2.64185 2.95737,-12.47327 3.8009,-19 0.32889,-2.54474 0.44345,-5.49133 0.85187,-8 0.37003,-2.27283 0.63263,-3.61371 0.99536,-6 0.51685,-3.40033 0.22775,-7.51587 0.67133,-11 1.18701,-9.32367 2.73669,-18.56403 2.74072,-29 9.5e-4,-2.41205 -0.10294,-4.57941 0.13428,-7 0.31756,-3.24078 0.802,-4.67065 0.86108,-8 0.15643,-8.81439 0.005,-19.05432 0.005,-28 0,-3.75323 0,-5.37878 0,-9 0,-9.79608 0.85675,-23.88678 -0.13428,-34 -2.48303,-25.3385 -2.92175,-51.54468 -3.88424,-77 -0.61582,-16.28687 -2.51893,-32.7688 -4.11576,-49 -0.3937,-4.00195 -1.50955,-14.78198 -1.94903,-18 -1.04871,-7.67889 -5.0709,-8.14661 -6.91669,-10 m 388,10 c -0.0956,3.06323 -1,11.03296 -1,15 0,5.06183 -0.67944,12.05298 -0.86572,14 -0.0606,0.63367 -0.39826,2.86279 0.0833,5 0.59186,2.62689 1.54285,3.43066 1.97687,4 1.35437,1.77655 3.48688,2.48096 4.7268,9 0.66852,3.51489 1.4383,9.12524 1.96302,13 1.20202,8.87646 2.25097,17.16797 3.15741,26 1.45294,14.15723 0.69134,28.70111 2.09259,43 0.68945,7.03564 0.86572,16.15607 0.86572,23 0,3.61517 0.12164,5.25525 -0.0185,9 -0.28766,7.6861 -1.37268,16.91864 -2.11579,24 -0.91516,8.72083 -2.5921,17.63348 -4.46759,27 -1.0567,5.27759 -1.96258,9.66931 -3.26849,15 -1.79352,7.32111 -3.25641,16.9942 -5.34259,20.98145 -3.07019,5.86798 -8.72937,6.47595 -11.49536,8.92596 C 718.89148,853.14764 718.13165,854.2973 718,860 m 0,-7 c -4.2085,-3.28345 -8.61163,-2.0658 -10.04169,-16 -0.4649,-4.52979 -1.09027,-8.46582 -1.69903,-13 -0.72992,-5.43652 -1.03205,-10.38031 -1.84723,-16 -0.99976,-6.89209 -1.40949,-16.34106 -1.41205,-23 -0.001,-3.16608 0,-4.70178 0,-8 0,-10.71899 0.92499,-23.19202 1,-34 0.026,-3.74927 -0.11682,-5.38477 0.0185,-9 0.21741,-5.80957 0.69934,-13.27557 1.56946,-19 0.41803,-2.75 0.58392,-4.16943 1,-7 1.39111,-9.46411 3.24298,-23.21826 5.21295,-33 1.67878,-8.33594 7.26441,-28.01746 10.26392,-34.99536 C 724.65588,633.97699 728.14581,633.29822 731,632 M 342,908 v 2"
       id="path1" />
  </g>
</svg>
