<?xml version="1.0" encoding="UTF-8" standalone="no"?>
<!-- Created with Inkscape (http://www.inkscape.org/) -->

<svg
   version="1.1"
   id="svg1"
   width="1024"
   height="1024"
   viewBox="0 0 1024 1024"
   xmlns="http://www.w3.org/2000/svg"
   xmlns:svg="http://www.w3.org/2000/svg">
  <defs
     id="defs1" />
  <g
     id="g1">
    <path
       style="fill:#000000"
       d="m 335.5,938.03676 c -3.24812,-1.35848 -8.23202,-7.19905 -10.31963,-12.09345 -8.29936,-19.45783 -19.27304,-61.17607 -24.05349,-91.44331 -4.93939,-31.27348 -5.52662,-40.64371 -5.57762,-89 -0.0503,-47.70928 0.44224,-55.82122 5.07013,-83.5 5.14244,-30.75629 17.92324,-63.87095 35.29173,-91.43977 l 6.07779,-9.64722 -1.46577,-9.7065 C 339.71697,545.86793 338.35075,537.45 337.48709,532.5 c -0.86366,-4.95 -2.7038,-15.525 -4.08922,-23.5 -9.6084,-55.30979 -23.66638,-122.00117 -34.99139,-166 -27.27599,-105.96999 -50.8689,-182.36247 -62.59433,-202.67686 -6.82892,-11.83115 -9.6957,-12.89959 -16.23357,-6.05024 -9.15645,9.59269 -16.22051,31.87078 -19.57276,61.7271 -1.80273,16.05566 -2.36946,59.75348 -1.08943,84 3.21485,60.89611 16.56355,154.73561 28.23668,198.5 9.18073,34.41996 20.69116,58.74982 29.48892,62.33137 4.51178,1.83674 14.33857,2.79007 20.52947,1.99163 3.1193,-0.4023 9.96543,-2.33973 15.21362,-4.30541 10.29486,-3.85588 13.53868,-3.89222 16.13825,-0.18082 2.12753,3.03748 1.86154,8.22675 -0.53618,10.46058 -2.10561,1.96167 -14.20125,7.0008 -29.48715,12.28456 -6.69201,2.31317 -11.46971,3.24726 -18.63065,3.64247 -8.78091,0.48462 -10.10439,0.312 -15,-1.9565 C 233.58091,557.5371 224.47118,546.30836 215.92528,527.0911 198.02033,486.82808 188.2443,431.15926 184.91404,350.5 183.57424,318.05002 184.28682,219.46523 186.038,195 c 1.27922,-17.87152 4.41844,-38.99578 7.11047,-47.84727 4.91967,-16.17609 13.22912,-28.27032 22.85153,-33.25991 6.77732,-3.5143 16.86707,-3.35272 23.20263,0.37157 7.71325,4.53416 15.56866,16.17918 23.09437,34.23561 7.79497,18.70244 21.1747,58.58307 31.03322,92.5 22.24907,76.54492 44.46728,185.9443 57.27212,282 1.50304,11.275 2.81988,20.625 2.92633,20.77778 0.10646,0.15278 5.09355,-4.59594 11.08244,-10.55271 17.08127,-16.98967 30.62125,-24.90302 44.42101,-25.96156 5.87876,-0.45095 6.82896,-0.25357 9.5,1.97338 2.47271,2.06161 4.46946,2.59162 11.96788,3.17673 16.96133,1.32351 30.84066,5.24565 40.70878,11.50383 3.06596,1.94437 6.20105,2.93261 10.55627,3.32753 4.12961,0.37446 7.7854,1.47337 10.96502,3.29602 11.35629,6.50976 20.33291,11.459 20.78363,11.459 0.26747,0 0.502,-2.5875 0.52119,-5.75 0.0957,-15.77409 5.15689,-30.34955 13.12741,-37.80504 C 535.10937,491.0114 539.47509,489.5 553,489.5 c 13.26276,0 22.04921,2.36794 29.29599,7.89525 8.07243,6.15704 10.50034,13.73464 8.65399,27.00938 -1.96705,14.1426 -7.52944,24.29541 -19.3884,35.38889 -7.55779,7.06993 -7.28599,7.82197 2.50605,6.93406 7.98412,-0.72397 13.45442,-4.08119 24.04856,-14.759 14.1445,-14.2562 19.41846,-23.05542 20.76228,-34.64031 0.49943,-4.30555 1.43288,-9.17827 2.07433,-10.82827 1.20992,-3.11226 7.78319,-10.5 9.34242,-10.5 0.48913,0 2.03349,-0.9 3.43191,-2 3.21244,-2.52691 8.28416,-2.56978 10.94321,-0.0925 3.20956,2.99016 3.8951,11.06381 1.36119,16.0307 -6.53249,12.80473 4.24731,39.70592 18.24825,45.53884 2.07889,0.86608 6.60444,1.6584 10.05679,1.76071 5.09487,0.15098 7.3598,-0.34375 12.02664,-2.62702 6.74627,-3.30064 15.72106,-12.08764 18.76203,-18.36943 2.88015,-5.94961 2.88399,-16.91385 0.01,-27.90791 -2.39836,-9.17392 -2.65777,-13.44988 -1.01006,-16.64913 4.5613,-8.85633 13.35938,-10.00703 20.39157,-2.66701 6.80764,7.10565 10.43965,33.11589 6.97948,49.98275 -0.95906,4.675 -1.70015,10.3 -1.64688,12.5 0.12351,5.09996 5.37296,31.5 6.26355,31.5 0.36859,0 1.41779,-1.86851 2.33156,-4.15225 0.91377,-2.28373 6.19286,-12.74623 11.73131,-23.25 16.01017,-30.36357 91.94331,-168.91235 93.65906,-170.89177 1.7896,-2.06463 5.02297,-1.90561 6.41396,0.31544 1.82052,2.90689 -23.00597,55.20141 -56.64891,119.32529 -21.02881,40.08118 -36.77572,71.56086 -43.84632,87.65329 -8.64004,19.66441 -8.33442,18.14235 -5.93671,29.56574 7.87923,37.53902 10.91524,66.36216 11.85057,112.50622 0.7944,39.19154 -0.72684,56.58001 -8.21736,93.92804 -6.01129,29.97258 -11.99828,46.91792 -18.51361,52.40021 -7.11051,5.9831 -16.14017,5.4371 -22.26878,-1.34654 -5.6179,-6.21835 -9.22107,-20.65737 -13.23921,-53.05367 -2.5519,-20.57474 -3.05916,-66.09755 -0.975,-87.5 4.5655,-46.88365 11.81081,-77.19314 29.00308,-121.32925 l 3.63401,-9.32924 -3.03649,-17.17076 c -1.67007,-9.44391 -3.28578,-18.63325 -3.59048,-20.42075 -0.30469,-1.7875 -0.75633,-3.25 -1.00364,-3.25 -0.2473,0 -3.26441,2.27331 -6.70468,5.0518 -10.73502,8.67 -23.67974,13.91164 -34.41707,13.93633 -7.29453,0.0168 -19.3905,-2.47014 -24.50059,-5.03729 -7.28598,-3.66023 -14.2974,-9.63735 -19.30323,-16.45567 C 629.91143,560.92283 627.65759,558 627.52562,558 c -0.13197,0 -2.93292,3.28111 -6.22433,7.29136 -7.20664,8.78057 -18.91211,18.41063 -27.50344,22.627 -11.77619,5.7794 -31.80165,6.20426 -45.11372,0.95713 -5.30036,-2.0892 -15.77941,-9.07565 -19.02054,-12.6811 -1.24262,-1.38229 -4.15273,-2.431 -9,-3.2433 -5.36192,-0.89854 -10.26588,-2.80387 -19.49856,-7.57577 C 494.3808,561.86889 488.6433,559 488.41503,559 488.18676,559 488,560.47154 488,562.2701 c 0,11.3538 -9.95264,32.64075 -20.08262,42.95318 C 458.42277,614.8889 452.43696,617.5125 440,617.45956 427.58746,617.40672 423.08155,615.40437 413.55412,605.70743 400.88849,592.81645 395.1252,577.88374 394.27302,555.75 393.97955,548.12754 393.32126,542 392.79586,542 c -1.69077,0 -12.12821,8.65279 -18.89383,15.66325 C 364.22388,567.69166 358,575.86094 358,578.5358 c 0,1.29386 1.10187,12.84011 2.44859,25.65834 5.99041,57.01716 8.14548,91.15617 9.64609,152.80586 0.60913,25.025 0.81534,53.825 0.45824,64 -0.92262,26.28898 -4.30011,74.66021 -6.05873,86.77111 -2.48223,17.09407 -6.78611,26.24141 -13.94513,29.63858 -3.55171,1.6854 -11.70617,2.02518 -15.04906,0.62707 z M 344.88433,880.25 c 2.85846,-12.19503 6.70328,-36.702 8.82488,-56.25 1.50304,-13.84868 1.78511,-25.25738 1.75543,-71 -0.0364,-56.03207 -0.8448,-73.08894 -6.01937,-127 -0.81826,-8.525 -1.76922,-18.7625 -2.11324,-22.75 -0.34403,-3.9875 -1.03824,-7.25 -1.54269,-7.25 -1.37355,0 -15.11608,29.16708 -18.658,39.59965 -8.84517,26.05309 -12.20595,50.28836 -12.18941,87.90035 0.0232,52.87128 8.61531,107.68315 24.72816,157.75 1.37178,4.2625 2.64471,7.75 2.82871,7.75 0.18401,0 1.2575,-3.9375 2.38553,-8.75 z M 723,833.52551 c 0,-0.26096 1.54801,-6.67346 3.44002,-14.25 4.29107,-17.18353 7.97859,-36.44252 9.72199,-50.77551 2.02923,-16.68289 1.74198,-73.87975 -0.46465,-92.51871 -1.95755,-16.53508 -4.3495,-31.96677 -5.06598,-32.68325 -0.74394,-0.74394 -5.1594,13.92762 -8.5173,28.301 -6.03516,25.83337 -6.61753,32.77296 -6.57938,78.40096 0.0328,39.27574 0.18023,42.61128 2.75,62.23415 1.49342,11.40378 2.7153,20.96628 2.7153,21.25 0,0.28372 0.45,0.51585 1,0.51585 0.55,0 1,-0.21352 1,-0.47449 z M 446.93516,592.53353 c 10.17155,-5.25991 21.71584,-28.9194 19.60387,-40.1772 -0.83921,-4.47333 -5.63526,-7.96419 -15.04909,-10.95364 -8.82491,-2.80243 -22.72037,-3.36739 -25.4112,-1.03318 -0.86831,0.75323 -2.92874,1.8016 -4.57874,2.3297 -2.88318,0.9228 -3.01139,1.21447 -3.2925,7.49063 -0.51915,11.59054 4.18296,27.52792 10.90834,36.97285 4.47435,6.28364 11.79012,8.48866 17.81932,5.37084 z m 102.98446,-45.99196 c 3.89404,-2.01369 11.47474,-10.65903 14.09798,-16.07793 2.85292,-5.89335 3.74963,-12.3642 1.87765,-13.54954 -0.76739,-0.48591 -4.39822,-0.89037 -8.06852,-0.89879 -5.67417,-0.013 -7.11863,0.35942 -9.64786,2.48764 C 544.72257,521.41123 543,528.8382 543,540.83191 c 0,6.55931 0.17407,7.16809 2.04966,7.16809 1.12731,0 3.31879,-0.65629 4.86996,-1.45843 z"
       id="path1" />
  </g>
</svg>
